<svg xmlns="http://www.w3.org/2000/svg" viewBox="0 0 800 450">
  <defs><linearGradient id="g" x1="0" x2="1" y1="0" y2="1"><stop stop-color="#fff8ed"/><stop offset="1" stop-color="#e7c7bd"/></linearGradient></defs>
  <rect width="800" height="450" fill="url(#g)"/>
  <path d="M300 290v-90c0-28 44-28 44 0v90M378 290V170c0-30 44-30 44 0v120M456 290v-88c0-28 44-28 44 0v88" fill="none" stroke="#4f9692" stroke-width="24" stroke-linecap="round"/>
  <path d="M303 196c12-18 28-18 40 0M381 166c12-18 28-18 40 0M459 198c12-18 28-18 40 0" stroke="#c4a76c" stroke-width="8" stroke-linecap="round"/>
  <text x="400" y="374" text-anchor="middle" font-family="Georgia, serif" font-size="32" fill="#203335">Servicio de unas</text>
</svg>
